<?xml version="1.0" standalone="no"?>
<!DOCTYPE svg PUBLIC "-//W3C//DTD SVG 20010904//EN"
 "http://www.w3.org/TR/2001/REC-SVG-20010904/DTD/svg10.dtd">
<svg version="1.0" xmlns="http://www.w3.org/2000/svg"
 width="128.000000pt" height="128.000000pt" viewBox="0 0 128.000000 128.000000"
 preserveAspectRatio="xMidYMid meet">
<metadata>
Created by potrace 1.14, written by Peter Selinger 2001-2017
</metadata>
<g transform="translate(0.000000,128.000000) scale(0.100000,-0.100000)"
fill="#000000" stroke="none">
<path d="M82 968 l3 -313 28 -47 28 -48 -28 -47 -28 -48 -3 -233 -3 -234 153
4 c146 3 155 4 200 31 101 59 127 121 128 310 l0 137 79 0 79 0 4 -152 c3
-146 4 -155 31 -200 59 -102 121 -127 310 -128 l138 0 -3 233 -3 232 -28 47
-28 48 28 47 28 48 3 233 3 232 -80 0 -81 0 0 -205 c0 -128 -4 -213 -11 -228
-14 -32 -49 -47 -104 -47 l-45 0 0 63 c0 149 -120 267 -261 254 l-57 -5 -4 78
c-5 89 -35 151 -93 196 -59 44 -99 53 -248 54 l-138 0 3 -312z m271 141 c42
-19 47 -47 47 -264 l0 -205 -45 0 c-55 0 -90 15 -104 47 -7 15 -11 100 -11
228 l0 205 45 0 c24 0 55 -5 68 -11z m321 -320 c58 -27 55 -115 -5 -139 -63
-26 -125 36 -100 99 19 44 60 60 105 40z m-274 -434 c0 -69 -5 -135 -11 -148
-14 -32 -49 -47 -104 -47 l-45 0 0 125 c0 170 13 193 113 194 l47 1 0 -125z
m593 114 c39 -18 47 -50 47 -184 l0 -125 -45 0 c-55 0 -90 15 -104 47 -6 13
-11 79 -11 148 l0 125 45 0 c24 0 55 -5 68 -11z"/>
</g>
</svg>
